<svg width="137" height="38" viewBox="0 0 137 38" fill="none" xmlns="http://www.w3.org/2000/svg">
<path d="M92.35 29.3C91.017 29.3 89.95 28.95 89.15 28.25C88.383 27.5167 88 26.6 88 25.5C88 23.9667 88.567 22.6667 89.7 21.6C90.867 20.5333 92.3 20 94 20C95.3 20 96.333 20.3667 97.1 21.1C97.867 21.8 98.25 22.7167 98.25 23.85C98.25 25.35 97.667 26.6333 96.5 27.7C95.367 28.7667 93.983 29.3 92.35 29.3Z" fill="url(#paint0_radial_337_669)"/>
<path d="M132.294 6.475C131.36 6.475 130.614 6.23 130.054 5.74C129.517 5.22667 129.249 4.585 129.249 3.815C129.249 2.765 129.657 1.86667 130.474 1.12C131.29 0.373334 132.282 0 133.449 0C134.382 0 135.117 0.256667 135.654 0.77C136.19 1.26 136.459 1.90167 136.459 2.695C136.459 3.72167 136.05 4.60833 135.234 5.355C134.417 6.10167 133.437 6.475 132.294 6.475ZM134.884 8.505L131.454 28.035H125.469L128.899 8.505H134.884Z" fill="white"/>
<path d="M102.274 18.235C102.624 16.2283 103.312 14.4667 104.339 12.95C105.366 11.4333 106.602 10.2667 108.049 9.45001C109.496 8.63334 111.024 8.22501 112.634 8.22501C114.011 8.22501 115.166 8.50501 116.099 9.06501C117.032 9.62501 117.709 10.36 118.129 11.27L118.619 8.505H124.604L121.139 28.035H115.154L115.679 25.27C114.932 26.18 113.987 26.915 112.844 27.475C111.701 28.035 110.441 28.315 109.064 28.315C107.687 28.315 106.462 28 105.389 27.37C104.339 26.74 103.522 25.8533 102.939 24.71C102.356 23.5433 102.064 22.1783 102.064 20.615C102.064 19.8683 102.134 19.075 102.274 18.235ZM116.904 18.27C116.974 17.85 117.009 17.465 117.009 17.115C117.009 15.9717 116.671 15.0733 115.994 14.42C115.341 13.7667 114.501 13.44 113.474 13.44C112.284 13.44 111.199 13.8717 110.219 14.735C109.239 15.575 108.621 16.7417 108.364 18.235C108.294 18.655 108.259 19.04 108.259 19.39C108.259 20.5333 108.586 21.4433 109.239 22.12C109.916 22.7733 110.756 23.1 111.759 23.1C112.949 23.1 114.034 22.6683 115.014 21.805C115.994 20.9417 116.624 19.7633 116.904 18.27Z" fill="white"/>
<path d="M74.7676 8.22501C76.1443 8.22501 77.311 8.50501 78.2676 9.06501C79.2243 9.62501 79.8893 10.36 80.2626 11.27L80.7526 8.505H86.7376L83.3076 28C82.981 29.7967 82.3276 31.4183 81.3476 32.865C80.391 34.335 79.096 35.5017 77.4626 36.365C75.8526 37.2283 73.9743 37.66 71.8276 37.66C68.9343 37.66 66.706 36.9717 65.1426 35.595C63.5793 34.2417 62.8793 32.3983 63.0426 30.065H68.9576C69.0276 30.8117 69.366 31.395 69.9726 31.815C70.6026 32.2583 71.431 32.48 72.4576 32.48C73.6943 32.48 74.7443 32.1183 75.6076 31.395C76.471 30.695 77.0426 29.5633 77.3226 28L77.8126 25.235C77.066 26.145 76.121 26.8917 74.9776 27.475C73.8576 28.035 72.6093 28.315 71.2326 28.315C69.856 28.315 68.631 28 67.5576 27.37C66.5076 26.74 65.6793 25.8417 65.0726 24.675C64.4893 23.5083 64.1976 22.1433 64.1976 20.58C64.1976 19.8567 64.2676 19.075 64.4076 18.235C64.7576 16.2283 65.446 14.4667 66.4726 12.95C67.4993 11.4333 68.736 10.2667 70.1826 9.45001C71.6293 8.63334 73.1576 8.22501 74.7676 8.22501ZM79.0376 18.27C79.1076 17.85 79.1426 17.465 79.1426 17.115C79.1426 15.9717 78.8043 15.0733 78.1276 14.42C77.4743 13.7667 76.6343 13.44 75.6076 13.44C74.4176 13.44 73.3326 13.8717 72.3526 14.735C71.3726 15.575 70.7543 16.7417 70.4976 18.235C70.4276 18.655 70.3926 19.04 70.3926 19.39C70.3926 20.5333 70.7193 21.4433 71.3726 22.12C72.0493 22.7733 72.8893 23.1 73.8926 23.1C75.0826 23.1 76.1676 22.6683 77.1476 21.805C78.1276 20.9417 78.7576 19.7633 79.0376 18.27Z" fill="white"/>
<path d="M55.6287 8.29501C57.5887 8.29501 59.1287 8.84335 60.2487 9.94001C61.3687 11.0367 61.9287 12.565 61.9287 14.525C61.9287 15.1783 61.8587 15.8783 61.7187 16.625L59.6887 28.035H53.7387L55.6287 17.43C55.6987 17.0333 55.7337 16.6833 55.7337 16.38C55.7337 15.4 55.4537 14.6417 54.8937 14.105C54.357 13.5683 53.5987 13.3 52.6187 13.3C51.452 13.3 50.472 13.6617 49.6787 14.385C48.8853 15.1083 48.372 16.1233 48.1387 17.43V17.255L46.2487 28.035H40.2637L43.6937 8.50501H49.6787L49.2237 11.13C49.9937 10.2667 50.927 9.57835 52.0237 9.06501C53.1437 8.55168 54.3453 8.29501 55.6287 8.29501Z" fill="white"/>
<path d="M39.3947 8.505L35.9647 28.035H29.9797L30.4347 25.375C29.6647 26.2383 28.7196 26.9383 27.5996 27.475C26.503 27.9883 25.3246 28.245 24.0646 28.245C22.1046 28.245 20.5646 27.6967 19.4446 26.6C18.3246 25.48 17.7646 23.9283 17.7646 21.945C17.7646 21.1983 17.823 20.5217 17.9396 19.915L19.9696 8.505H25.9196L24.0646 19.11C23.9946 19.4833 23.9597 19.845 23.9597 20.195C23.9597 21.175 24.228 21.9333 24.7647 22.47C25.3247 22.9833 26.0946 23.24 27.0746 23.24C28.1946 23.24 29.1397 22.9133 29.9097 22.26C30.703 21.5833 31.228 20.6267 31.4846 19.39L33.4097 8.505H39.3947Z" fill="white"/>
<path d="M6.79 23.485H14.63L13.825 28.035H0L4.34 3.465H10.325L6.79 23.485Z" fill="white"/>
<defs>
<radialGradient id="paint0_radial_337_669" cx="0" cy="0" r="1" gradientUnits="userSpaceOnUse" gradientTransform="translate(96.281 20.9) rotate(135) scale(10.6066 22.3446)">
<stop stop-color="#FFC444"/>
<stop offset="0.485" stop-color="#F05420"/>
<stop offset="1" stop-color="#C90670"/>
</radialGradient>
</defs>
</svg>
