<svg width="29" height="22" viewBox="0 0 29 22" fill="none" xmlns="http://www.w3.org/2000/svg">
<path d="M14.4999 17.1874C11.0629 17.1874 8.28074 14.6648 8.02472 11.4679L3.27145 7.98448C2.6466 8.72784 2.07158 9.51373 1.60758 10.3731C1.50393 10.5675 1.44992 10.7823 1.44992 11.0002C1.44992 11.2181 1.50393 11.4329 1.60758 11.6273C4.06487 16.1738 8.92961 19.2499 14.4999 19.2499C15.7192 19.2499 16.8955 19.078 18.0292 18.8005L15.678 17.0753C15.2897 17.1464 14.8953 17.184 14.4999 17.1874ZM28.7198 19.6839L23.7105 16.0127C25.2322 14.7966 26.4836 13.3058 27.3921 11.6269C27.4958 11.4325 27.5498 11.2177 27.5498 10.9998C27.5498 10.7819 27.4958 10.5671 27.3921 10.3727C24.9348 5.82619 20.0701 2.75008 14.4999 2.75008C12.167 2.75277 9.87193 3.30969 7.82444 4.36999L2.0598 0.144916C1.98463 0.0894471 1.89867 0.0485683 1.80683 0.0246155C1.71499 0.000662693 1.61907 -0.00589462 1.52456 0.00531829C1.43005 0.0165312 1.33879 0.0452945 1.25601 0.0899646C1.17322 0.134635 1.10053 0.194336 1.04209 0.265657L0.152605 1.35147C0.0346106 1.4954 -0.0182618 1.67789 0.00561606 1.85879C0.0294939 2.03969 0.128167 2.20419 0.279932 2.3161L26.9399 21.8551C27.0151 21.9106 27.101 21.9514 27.1929 21.9754C27.2847 21.9993 27.3806 22.0059 27.4752 21.9947C27.5697 21.9835 27.6609 21.9547 27.7437 21.91C27.8265 21.8654 27.8992 21.8057 27.9576 21.7343L28.8476 20.6485C28.9655 20.5045 29.0183 20.322 28.9943 20.1411C28.9704 19.9602 28.8716 19.7958 28.7198 19.6839ZM20.395 13.5824L18.6142 12.277C18.7642 11.866 18.8437 11.4349 18.8498 11C18.8587 10.3633 18.7099 9.73355 18.4156 9.16128C18.1212 8.589 17.6893 8.09017 17.1548 7.70485C16.6202 7.31954 15.9978 7.05848 15.3375 6.94265C14.6773 6.82681 13.9976 6.85944 13.353 7.03789C13.6262 7.38899 13.774 7.81368 13.7749 8.25003C13.7681 8.39523 13.7447 8.53931 13.7051 8.67971L10.3696 6.23524C11.5283 5.3171 12.9899 4.81362 14.4999 4.81256C15.3569 4.81211 16.2056 4.97185 16.9974 5.28263C17.7893 5.59342 18.5088 6.04917 19.1148 6.62381C19.7208 7.19846 20.2014 7.88074 20.5291 8.63164C20.8569 9.38253 21.0253 10.1873 21.0248 11C21.0248 11.9294 20.7851 12.7956 20.395 13.5828V13.5824Z" fill="#180C21"/>
</svg>
