<svg width="34" height="25" viewBox="0 0 34 25" fill="none" xmlns="http://www.w3.org/2000/svg">
<path d="M30.2222 0H8.5V25H30.2222C31.2241 25 32.185 24.5948 32.8935 23.8735C33.602 23.1522 34 22.1739 34 21.1538V3.84615C34 2.82609 33.602 1.84781 32.8935 1.12651C32.185 0.405218 31.2241 0 30.2222 0ZM21.25 19.6846C19.3714 19.6846 17.5697 18.9248 16.2413 17.5724C14.9129 16.22 14.1667 14.3857 14.1667 12.4731C14.1667 8.89615 16.7271 5.93558 20.0817 5.36731C18.8131 5.96577 17.7834 6.98745 17.163 8.26313C16.5426 9.53881 16.3688 10.992 16.6704 12.3819C16.972 13.7719 17.7309 15.0153 18.8213 15.9062C19.9118 16.7971 21.2685 17.2821 22.6667 17.2808C23.8362 17.2802 24.9812 16.9393 25.9668 16.2982C26.9523 15.6572 27.7374 14.7427 28.2294 13.6625C27.6713 17.0788 24.7633 19.6846 21.25 19.6846ZM26.0761 9.66154L24.9305 11.6058L24.7341 9.34711L22.5637 8.83942L24.6132 7.95096L24.4177 5.69231L25.8797 7.40288L27.9291 6.51442L26.7844 8.45962L28.2464 10.1702L26.0761 9.66154Z" fill="#004600"/>
<path d="M3.77778 0C2.77585 0 1.81496 0.405218 1.10649 1.12651C0.398015 1.84781 0 2.82609 0 3.84615L0 21.1538C0 22.1739 0.398015 23.1522 1.10649 23.8735C1.81496 24.5948 2.77585 25 3.77778 25H8.5V0H3.77778Z" fill="#EEEEEE"/>
<path d="M27.9289 6.51444L25.8794 7.4029L24.4174 5.69232L24.6129 7.95098L22.5635 8.83944L24.7338 9.34713L24.9303 11.6058L26.0759 9.66155L28.2462 10.1702L26.7842 8.45963L27.9289 6.51444Z" fill="white"/>
<path d="M22.6665 17.2808C21.2683 17.2821 19.9117 16.7971 18.8212 15.9062C17.7307 15.0153 16.9718 13.7719 16.6702 12.3819C16.3686 10.992 16.5424 9.53881 17.1628 8.26313C17.7832 6.98745 18.813 5.96577 20.0816 5.36731C16.7269 5.93654 14.1665 8.89712 14.1665 12.4731C14.1665 14.3857 14.9128 16.22 16.2412 17.5724C17.5695 18.9248 19.3712 19.6846 21.2498 19.6846C24.7632 19.6846 27.6711 17.0779 28.2293 13.6625C27.7374 14.7428 26.9524 15.6575 25.9668 16.2986C24.9812 16.9396 23.8361 17.2804 22.6665 17.2808Z" fill="white"/>
</svg>
